<svg xmlns="http://www.w3.org/2000/svg" width="16" height="16" viewBox="0 0 16 16"><path d="M14.5 0h-13C.675 0 0 .675 0 1.5v13c0 .825.675 1.5 1.5 1.5h13c.825 0 1.5-.675 1.5-1.5v-13c0-.825-.675-1.5-1.5-1.5zm-1.54 11.2l-1.464.022s-.316.063-.728-.222c-.547-.375-1.063-1.353-1.466-1.225-.406.128-.394 1.006-.394 1.006s.003.19-.09.288c-.1.11-.3.13-.3.13h-.654s-1.444.09-2.716-1.237C3.76 8.518 2.536 5.653 2.536 5.653s-.072-.188.006-.278c.087-.103.322-.11.322-.11l1.566-.008s.147.025.253.103c.088.062.134.183.134.183s.253.64.588 1.22c.653 1.127.96 1.374 1.18 1.255.323-.175.226-1.597.226-1.597s.007-.515-.16-.743c-.132-.178-.38-.23-.485-.244-.088-.013.056-.216.244-.31.28-.137.777-.146 1.365-.14.456.003.59.034.77.075.54.13.355.634.355 1.84 0 .39-.07.932.21 1.11.118.078.41.012 1.146-1.234.347-.59.61-1.284.61-1.284s.055-.125.143-.178c.09-.053.212-.037.212-.037l1.647-.01s.493-.058.574.167c.084.234-.184.78-.856 1.678-1.103 1.472-1.228 1.334-.31 2.184.876.813 1.057 1.21 1.09 1.26.355.6-.407.646-.407.646z"/></svg>